#!OML:ASF H:\Terrain\Walking\May29\JustinRory\Justin.ASF
:FULLY-SPECIFIED
:DEGREES
32
root 8.41336 17.9057 10.7329 -181.528 -4.82229 -180.778
lowerback 3.85317 2.9835 -3.79539
upperback 1.20276 3.78657 0.0238023
thorax -1.16808 1.87621 1.95781
lowerneck -17.9454 -5.60989 -13.6214
upperneck 27.032 -6.06179 4.02579
head 12.53 -3.94655 2.7529
rclavicle -1.83752e-014 3.37934e-015
rhumerus -2.75761 0.682932 -84.1106
rradius 43.0821
rwrist -22.0518
rhand -17.5827 31.8895
rfingers 7.12502
rthumb 8.67304 2.08771
lclavicle -1.83752e-014 3.37934e-015
lhumerus -26.7756 2.75101 78.2359
lradius 45.248
lwrist -2.16652
lhand 0.767852 35.525
lfingers 7.12502
lthumb 26.3256 63.718
rfemur -21.5041 -8.14691 17.8878
rtibia 40.3683
rfoot -11.7305 -13.5307
rtoes 11.3488
lfemur -4.75326 -3.79989 -23.6143
ltibia 26.3381
lfoot -14.3628 -1.80659
ltoes -9.02854
33
root 8.40258 17.904 10.6326 -181.162 -5.11597 -180.826
lowerback 3.65569 2.98899 -3.70837
upperback 1.10264 3.80661 -0.0719237
thorax -1.14985 1.88894 1.8178
lowerneck -17.9143 -5.74841 -13.3939
upperneck 26.8474 -6.25552 3.85028
head 12.455 -4.0165 2.61586
rclavicle -5.29264e-015 7.15625e-015
rhumerus -2.4103 0.0790754 -84.23
rradius 42.9792
rwrist -21.8721
rhand -18.3799 32.0958
rfingers 7.12502
rthumb 7.90365 2.26355
lclavicle -5.29264e-015 7.15625e-015
lhumerus -26.572 2.48498 78.0751
lradius 45.9584
lwrist -2.03712
lhand 1.77932 34.9391
lfingers 7.12502
lthumb 27.2935 62.9836
rfemur -21.8824 -7.74817 17.8859
rtibia 37.7227
rfoot -10.8269 -13.4775
rtoes 10.05
lfemur -4.60686 -3.77075 -23.6807
ltibia 25.9023
lfoot -14.2238 -1.88307
ltoes -12.3997
34
root 8.39819 17.9131 10.5278 -180.657 -5.28728 -180.72
lowerback 3.31734 3.06402 -3.61211
upperback 0.878795 3.93007 -0.0727869
thorax -1.19166 1.95851 1.76813
lowerneck -17.6731 -5.90825 -13.346
upperneck 26.6279 -6.53464 3.90701
head 12.347 -4.11862 2.58749
rclavicle -4.5559e-014 1.09332e-014
rhumerus -2.28428 -0.257916 -84.1193
rradius 43.0579
rwrist -22.1417
rhand -17.2525 31.3597
rfingers 7.12502
rthumb 8.99173 1.5713
lclavicle -4.5559e-014 1.09332e-014
lhumerus -26.4532 1.79434 78.0008
lradius 46.5341
lwrist -1.82909
lhand 0.124472 34.7348
lfingers 7.12502
lthumb 25.7096 63.0184
rfemur -22.3174 -7.14716 18.0435
rtibia 34.9788
rfoot -9.867 -13.3528
rtoes 12.3033
lfemur -4.62653 -3.52569 -23.5267
ltibia 25.5216
lfoot -14.4458 -2.00092
ltoes -14.7349
35
root 8.39331 17.9195 10.4294 -180.425 -5.74635 -180.817
lowerback 1.39576 3.01679 -3.49009
upperback 2.17114 3.94854 -0.151205
thorax 1.22201 1.89869 1.77419
lowerneck -18.344 -6.40715 -13.6003
upperneck 25.6796 -7.05113 4.55113
head 12.1972 -4.19246 2.77759
rclavicle -4.48881e-014 1.54058e-014
rhumerus 0.160933 -0.493488 -83.9683
rradius 42.9057
rwrist -22.9149
rhand -15.7855 30.6939
rfingers 7.12502
rthumb 10.4071 0.971471
lclavicle -4.48881e-014 1.54058e-014
lhumerus -24.0801 1.56929 78.0095
lradius 46.8341
lwrist -1.74165
lhand -1.88468 34.4737
lfingers 7.12502
lthumb 23.784 63.0217
rfemur -22.3405 -6.80542 17.919
rtibia 32.1159
rfoot -8.51 -13.0885
rtoes 13.5136
lfemur -4.36873 -3.50718 -23.5725
ltibia 25.2334
lfoot -14.5589 -2.38158
ltoes -13.2468
36
root 8.3864 17.9172 10.3361 -180.309 -6.45741 -180.967
lowerback 3.66017 2.83048 -2.06957
upperback 0.600034 3.61322 -1.51896
thorax -1.46313 1.78804 -0.576392
lowerneck -17.4324 -6.14879 -12.6551
upperneck 26.4861 -7.53842 5.36059
head 12.3615 -4.30532 2.86806
rclavicle 6.02318e-014 -2.8625e-014
rhumerus -1.85121 -1.94303 -86.1068
rradius 43.0846
rwrist -22.5815
rhand -15.357 30.382
rfingers 7.12502
rthumb 10.8204 0.680742
lclavicle 6.02318e-014 -2.8625e-014
lhumerus -25.9591 -0.611454 75.9423
lradius 47.9183
lwrist -1.14991
lhand -1.47545 35.2763
lfingers 7.12502
lthumb 24.1764 63.7726
rfemur -22.1116 -6.70082 17.6895
rtibia 29.157
rfoot -7.28693 -12.8566
rtoes 12.1715
lfemur -4.08543 -3.66128 -23.6755
ltibia 25.0512
lfoot -14.7359 -2.97216
ltoes -11.4688
